<?xml version="1.0" encoding="utf-8"?>
<!-- Generator: Adobe Illustrator 25.1.0, SVG Export Plug-In . SVG Version: 6.00 Build 0)  -->
<svg version="1.1" id="Calque_1" xmlns="http://www.w3.org/2000/svg" xmlns:xlink="http://www.w3.org/1999/xlink" x="0px" y="0px"
	 viewBox="0 0 888.7 97.4" style="enable-background:new 0 0 888.7 97.4;" xml:space="preserve">
<style type="text/css">
	.st0{fill:#FFFFFF;}
	.st1{fill:#F4CE63;}
	.st2{fill:#D83C6F;}
	.st3{fill:#753598;}
	.st4{fill:#0D5BC1;}
</style>
<g>
	<path class="st0" d="M133.3,65.7V21.2h9.4v36h19.4v8.5H133.3z"/>
	<path class="st0" d="M182,66.3c-9.6,0-16.8-7.6-16.8-17.2c0-9.7,7.2-17.2,16.8-17.2c9.5,0,16.8,7.5,16.8,17.2
		C198.8,58.8,191.6,66.3,182,66.3z M182,58.7c4.3,0,7.9-3.4,7.9-9.5c0-6.1-3.6-9.5-7.9-9.5s-7.9,3.3-7.9,9.5
		C174.1,55.3,177.7,58.7,182,58.7z"/>
	<path class="st0" d="M225.3,44.2l-6.3,21.5h-8.6l-9.4-33.1h8.4l5.6,21l6.1-21h8.6l5.9,21l5.6-21h8.4l-9.5,33.1h-8.5L225.3,44.2z"/>
	<path class="st0" d="M291.4,66.6c-12.8,0-22.8-9.9-22.8-23.3c0-13.3,9.9-23.1,22.8-23.1c12.9,0,22.9,9.8,22.9,23.1
		C314.3,56.7,304.3,66.6,291.4,66.6z M291.4,58.2c8.2,0,13.1-6.6,13.1-14.8s-5-14.7-13.1-14.7c-8.1,0-13.1,6.5-13.1,14.7
		S283.3,58.2,291.4,58.2z"/>
	<path class="st0" d="M328.4,65.7h-8.6V32.6h7.9V39c2.4-4.2,7.4-7.1,13-6.5v8.7c-7.3-0.6-12.3,1.2-12.3,8.5V65.7z"/>
	<path class="st0" d="M363.2,66.3c-4.2,0-7.8-1.9-10.4-5.4v4.8h-7.9V21.2h8.6v15.8c2.4-3.2,5.8-5,9.7-5c8.9,0,14.7,7.4,14.7,17.2
		C377.9,58.8,372.2,66.3,363.2,66.3z M361.3,58.6c4.2,0,7.8-3.3,7.8-9.5c0-6.3-3.5-9.6-7.8-9.6c-4.2,0-7.7,3.2-7.8,9.4
		C353.5,55.3,357.1,58.6,361.3,58.6z"/>
	<path class="st0" d="M387.7,30c-3.4,0-5.8-2.2-5.8-5.1c0-3,2.4-5.2,5.8-5.2s5.8,2.2,5.8,5.2C393.4,27.8,391.1,30,387.7,30z
		 M383.4,65.7V32.6h8.6v33.1H383.4z"/>
	<path class="st0" d="M413.6,66.3c-6.8,0-11.2-3.9-11.2-11.3V40h-6.6v-7.4h6.6v-9.8h8.6v9.8h9.5V40H411v13c0,3.8,1.7,5.4,4.9,5.4
		c1.6,0,3.1-0.4,4.3-1.1v7.5C418.2,65.9,416.2,66.3,413.6,66.3z"/>
	<path class="st0" d="M463.2,66.6c-12.5,0-22.3-10.2-22.3-23.3c0-13,9.8-23.1,22.3-23.1c11.7,0,20.9,7.8,22.4,19.2h-10
		c-1.1-6.4-6-10.8-12.3-10.8c-7.6,0-12.8,6-12.8,14.7c0,8.7,5.1,14.8,12.8,14.8c6.3,0,11.2-4.5,12.3-10.9h10
		C484.1,58.9,475,66.6,463.2,66.6z"/>
	<path class="st0" d="M499.8,65.7h-8.6V32.6h7.9V39c2.4-4.2,7.4-7.1,13-6.5v8.7c-7.3-0.6-12.3,1.2-12.3,8.5V65.7z"/>
	<path class="st0" d="M530.5,77.7h-9.3l4.7-12.3l-13-32.7h9.3l8.2,22.7l7.6-22.7h8.6L530.5,77.7z"/>
	<path class="st0" d="M558.8,61.4v16.2h-8.6V32.6h7.9v4.8c2.6-3.5,6.2-5.5,10.4-5.5c8.9,0,14.7,7.4,14.7,17.2
		c0,9.8-5.8,17.2-14.7,17.2C564.6,66.3,561.3,64.6,558.8,61.4z M566.6,58.6c4.2,0,7.8-3.2,7.8-9.5c0-6.2-3.5-9.6-7.8-9.6
		s-7.7,3.3-7.8,9.6C558.8,55.4,562.4,58.6,566.6,58.6z"/>
	<path class="st0" d="M602.6,66.3c-6.8,0-11.2-3.9-11.2-11.3V40h-6.6v-7.4h6.6v-9.8h8.6v9.8h9.5V40H600v13c0,3.8,1.7,5.4,4.9,5.4
		c1.6,0,3.1-0.4,4.3-1.1v7.5C607.1,65.9,605.1,66.3,602.6,66.3z"/>
	<path class="st0" d="M629.7,66.3c-9.6,0-16.8-7.6-16.8-17.2c0-9.7,7.2-17.2,16.8-17.2c9.5,0,16.8,7.5,16.8,17.2
		C646.5,58.8,639.3,66.3,629.7,66.3z M629.7,58.7c4.3,0,7.9-3.4,7.9-9.5c0-6.1-3.6-9.5-7.9-9.5s-7.9,3.3-7.9,9.5
		C621.8,55.3,625.4,58.7,629.7,58.7z"/>
	<path class="st0" d="M688.9,66.6c-12.5,0-22.3-10.2-22.3-23.3c0-13,9.8-23.1,22.3-23.1c11.7,0,20.9,7.8,22.4,19.2h-10
		c-1.1-6.4-6-10.8-12.3-10.8c-7.6,0-12.8,6-12.8,14.7c0,8.7,5.1,14.8,12.8,14.8c6.3,0,11.2-4.5,12.3-10.9h10
		C709.8,58.9,700.6,66.6,688.9,66.6z"/>
	<path class="st0" d="M736.4,61.6c-2.2,3.1-5.5,4.7-10,4.7c-6.9,0-11.4-4-11.4-10.2c0-6.4,5.2-9.9,14.8-9.9c1.9,0,3.7,0.1,5.5,0.4
		v-2c0-3.8-2.1-5.9-5.7-5.9c-3.6,0-6.2,2-6.2,5.9h-7.8c0.4-7.3,6.4-12.6,14-12.6c8.6,0,13.8,4.8,13.8,12.9v20.8h-7V61.6z
		 M728.3,60.4c4.3,0,7-2.4,7-6.3v-2.4c-1.8-0.3-3.3-0.4-5-0.4c-4.8,0-7.3,1.6-7.3,4.5C723,58.6,725,60.4,728.3,60.4z"/>
	<path class="st0" d="M758.8,65.7h-8.6V32.6h7.9v4.7c2.5-3.3,5.8-5.3,10.2-5.3c6.6,0,11.2,4.3,11.2,12.3v21.4H771V47.2
		c0-4.9-1.9-7.6-5.8-7.6c-3.4,0-6.3,2.7-6.3,8.1V65.7z"/>
	<path class="st0" d="M795,65.7h-8.6V32.6h7.9v4.7c2.5-3.3,5.8-5.3,10.2-5.3c6.6,0,11.2,4.3,11.2,12.3v21.4h-8.6V47.2
		c0-4.9-1.9-7.6-5.8-7.6c-3.4,0-6.3,2.7-6.3,8.1V65.7z"/>
	<path class="st0" d="M837.4,66.3c-9.6,0-16.8-7.6-16.8-17.2c0-9.7,7.2-17.2,16.8-17.2c9.5,0,16.8,7.5,16.8,17.2
		C854.2,58.8,846.9,66.3,837.4,66.3z M837.4,58.7c4.3,0,7.9-3.4,7.9-9.5c0-6.1-3.6-9.5-7.9-9.5c-4.3,0-7.9,3.3-7.9,9.5
		C829.4,55.3,833,58.7,837.4,58.7z"/>
	<path class="st0" d="M868,65.7h-8.6V32.6h7.9v4.7c2.5-3.3,5.8-5.3,10.2-5.3c6.6,0,11.2,4.3,11.2,12.3v21.4h-8.6V47.2
		c0-4.9-1.9-7.6-5.8-7.6c-3.4,0-6.3,2.7-6.3,8.1V65.7z"/>
</g>
<g>
	<polygon class="st1" points="53.6,10.9 74.8,10.9 21.5,64.4 0,64.4 	"/>
	<polygon class="st2" points="86.1,53.6 86.1,74.8 32.6,21.5 32.6,0 	"/>
	<polygon class="st3" points="74.9,33.2 96.1,33.2 42.8,86.8 21.3,86.8 	"/>
	<g>
		<polygon class="st4" points="26,59.9 63.7,97.4 63.7,76.2 36.7,49.1 		"/>
		<polygon class="st4" points="26,38.4 10.1,22.5 10.1,44.1 15.3,49.2 		"/>
	</g>
</g>
</svg>
