<?xml version="1.0" encoding="utf-8"?>
<!-- Generator: Adobe Illustrator 25.1.0, SVG Export Plug-In . SVG Version: 6.00 Build 0)  -->
<svg version="1.1" id="Calque_1" xmlns="http://www.w3.org/2000/svg" xmlns:xlink="http://www.w3.org/1999/xlink" x="0px" y="0px"
	 viewBox="0 0 61.7 75.9" style="enable-background:new 0 0 61.7 75.9;" xml:space="preserve">
<style type="text/css">
	.st0{fill:#DADADA;}
	.st1{fill:#FFFFFF;}
	.st2{fill:#C4C4C4;}
	.st3{fill:#F4CE63;}
	.st4{fill:#D83C6F;}
	.st5{fill:#753598;}
	.st6{fill:#0D5BC1;}
</style>
<g>
	<g>
		<path class="st0" d="M38.6,40.4H23.2c-8.9,0-16.1-7.2-16.1-16.1v0c0-8.9,7.2-16.1,16.1-16.1h15.4c8.9,0,16.1,7.2,16.1,16.1v0
			C54.6,33.2,47.4,40.4,38.6,40.4z"/>
		<path d="M42.1,41.3H19.6c-7.4,0-13.4-6-13.4-13.4v-7.1c0-7.4,6-13.4,13.4-13.4h22.5c7.4,0,13.4,6,13.4,13.4v7.1
			C55.6,35.3,49.5,41.3,42.1,41.3z M19.6,9.2C13.2,9.2,8,14.4,8,20.8v7.1c0,6.4,5.2,11.6,11.6,11.6h22.5c6.4,0,11.6-5.2,11.6-11.6
			v-7.1c0-6.4-5.2-11.6-11.6-11.6H19.6z"/>
	</g>
	<g>
		<path class="st1" d="M47.4,24.8H30.9H14.4C0.9,24.8,0.9,36.3,0.9,36.3s0,0.3,0,11.1c0,9.2,10.3,10.7,13.4,11v8.4
			c0,4.5,3.7,8.1,8.2,8.1s8.2-3.6,8.2-8.1c0,4.5,3.7,8.1,8.2,8.1s8.2-3.6,8.2-8.1v-8.4c3.2-0.3,13.4-1.8,13.4-11
			c0-10.8,0-11.1,0-11.1S60.8,24.8,47.4,24.8z"/>
		<path d="M39.1,75.9c-3.6,0-6.7-2.1-8.2-5.1c-1.5,3-4.6,5.1-8.2,5.1c-5.1,0-9.2-4.1-9.2-9.1v-7.5C9.4,58.8,0,56.7,0,47.5V36.3
			c0-0.1,0.2-12.5,14.4-12.5h33c14.2,0,14.4,12.4,14.4,12.5v11.1c0,9.2-9.4,11.4-13.4,11.8v7.5C48.3,71.8,44.2,75.9,39.1,75.9z
			 M30.9,65.9c0.5,0,0.9,0.4,0.9,0.9c0,4,3.3,7.2,7.3,7.2s7.3-3.2,7.3-7.2v-8.4c0-0.5,0.4-0.9,0.9-0.9c3-0.2,12.6-1.7,12.6-10.1
			V36.3c0-0.4-0.2-10.6-12.5-10.6h-33C2.1,25.7,1.9,35.9,1.9,36.3v11.1c0,8.4,9.6,9.8,12.6,10.1c0.5,0,0.9,0.4,0.9,0.9v8.4
			c0,4,3.3,7.2,7.3,7.2s7.3-3.2,7.3-7.2C29.9,66.3,30.3,65.9,30.9,65.9z"/>
	</g>
	<g>
		<path class="st1" d="M48.8,18c0,9.4-8,17.1-17.9,17.1c-7.4,0-13.7-4.3-16.5-10.4c-0.9-2.1-1.4-4.3-1.4-6.7c0-9.4,8-17.1,17.9-17.1
			S48.8,8.6,48.8,18z"/>
		<path d="M30.9,36.1c-7.5,0-14.4-4.3-17.3-10.9c-1-2.3-1.5-4.7-1.5-7.1c0-10,8.5-18,18.9-18c10.4,0,18.9,8.1,18.9,18
			S41.3,36.1,30.9,36.1z M30.9,1.9c-9.4,0-17,7.3-17,16.2c0,2.2,0.5,4.3,1.4,6.4c2.7,6,8.8,9.8,15.6,9.8c9.4,0,17-7.3,17-16.2
			S40.2,1.9,30.9,1.9z"/>
	</g>
	<g>
		<path d="M30.9,67.8c-0.5,0-0.9-0.4-0.9-0.9v-8.7c0-0.5,0.4-0.9,0.9-0.9s0.9,0.4,0.9,0.9v8.7C31.8,67.4,31.4,67.8,30.9,67.8z"/>
	</g>
	<g>
		<path d="M30.9,52.6c-0.5,0-0.9-0.4-0.9-0.9V35.2c0-0.5,0.4-0.9,0.9-0.9s0.9,0.4,0.9,0.9v16.5C31.8,52.1,31.4,52.6,30.9,52.6z"/>
	</g>
	<g>
		<path d="M35,59.1h-8.2c-0.5,0-0.9-0.4-0.9-0.9s0.4-0.9,0.9-0.9H35c0.5,0,0.9,0.4,0.9,0.9S35.5,59.1,35,59.1z"/>
	</g>
	<g>
		<path d="M14.4,59.4c-0.5,0-0.9-0.4-0.9-0.9V39.1c0-0.5,0.4-0.9,0.9-0.9c0.5,0,0.9,0.4,0.9,0.9v19.3C15.3,59,14.9,59.4,14.4,59.4z"
			/>
	</g>
	<g>
		<path d="M47.3,59.4c-0.5,0-0.9-0.4-0.9-0.9V39.1c0-0.5,0.4-0.9,0.9-0.9s0.9,0.4,0.9,0.9v19.3C48.2,59,47.8,59.4,47.3,59.4z"/>
	</g>
	<g>
		<path d="M14.4,50.8h-13c-0.5,0-0.9-0.4-0.9-0.9s0.4-0.9,0.9-0.9h13c0.5,0,0.9,0.4,0.9,0.9S14.9,50.8,14.4,50.8z"/>
	</g>
	<g>
		<path d="M60.2,50.8H47.3c-0.5,0-0.9-0.4-0.9-0.9s0.4-0.9,0.9-0.9h12.9c0.5,0,0.9,0.4,0.9,0.9S60.8,50.8,60.2,50.8z"/>
	</g>
	<g>
		<path class="st2" d="M44.2,11H30.9H17.5c0,0-5,1.3-5,7.7c0,6.4,8.5,10.9,18.3,10.9c9.9,0,18.3-4.6,18.3-10.9
			C49.2,12.3,44.2,11,44.2,11z"/>
		<path d="M30.9,30.6c-10.8,0-19.3-5.2-19.3-11.9c0-3.7,1.5-5.8,2.8-6.9c1.4-1.3,2.8-1.6,2.9-1.6c0.1,0,0.2,0,0.2,0h26.7
			c0.1,0,0.2,0,0.2,0c0.1,0,5.7,1.5,5.7,8.6C50.2,25.4,41.7,30.6,30.9,30.6z M17.7,12c-0.6,0.2-4.2,1.6-4.2,6.7
			c0,5.6,7.6,10,17.4,10s17.4-4.4,17.4-10c0-5.1-3.5-6.5-4.2-6.7H17.7z"/>
	</g>
	<g>
		<g>
			<polygon class="st3" points="39.7,38.4 42.2,38.4 36,44.7 33.4,44.7 			"/>
		</g>
		<g>
			<polygon class="st4" points="43.6,43.5 43.6,46 37.3,39.7 37.3,37.2 			"/>
		</g>
		<g>
			<polygon class="st5" points="42.2,41.1 44.7,41.1 38.5,47.4 35.9,47.4 			"/>
		</g>
		<g>
			<g>
				<polygon class="st6" points="36.5,44.2 40.9,48.6 40.9,46.1 37.7,42.9 				"/>
			</g>
			<g>
				<polygon class="st6" points="36.5,41.7 34.6,39.8 34.6,42.4 35.2,43 				"/>
			</g>
		</g>
	</g>
	<g>
		<path class="st1" d="M30.9,26.8c-9.5,0-14.6-5.2-14.8-5.4c-0.4-0.4-0.3-1,0-1.3c0.4-0.4,1-0.3,1.3,0c0.1,0.1,4.8,4.8,13.4,4.8
			c8.7,0,13.2-4.2,13.2-4.2c0.4-0.4,1-0.3,1.3,0c0.4,0.4,0.3,1,0,1.3C45.2,22.3,40.4,26.8,30.9,26.8z"/>
	</g>
</g>
</svg>
